<!-- icons.svg -->
<svg xmlns="http://www.w3.org/2000/svg" style="display:none">

  <!-- big arrow right -->
  <symbol id="big-arrow-right" viewBox="0 0 27 24">
  <path d="M26.0607 13.0607C26.6464 12.4749 26.6464 11.5251 26.0607 10.9393L16.5147 1.3934C15.9289 0.807611 14.9792 0.807611 14.3934 1.3934C13.8076 1.97919 13.8076 2.92893 14.3934 3.51472L22.8787 12L14.3934 20.4853C13.8076 21.0711 13.8076 22.0208 14.3934 22.6066C14.9792 23.1924 15.9289 23.1924 16.5147 22.6066L26.0607 13.0607ZM0 13.5H25V10.5H0V13.5Z" fill="black"/>
  </symbol>

  <!-- minus icon -->
  <symbol id="minus-icon" viewBox="0 0 30 30">
    <path d="M25 15H5" stroke="currentColor" stroke-width="4" stroke-linecap="round"/> 
  </symbol>

  <!-- plus icon -->
  <symbol id="plus-icon" viewBox="0 0 30 30">
    <path d="M15 15H5M15 25V15V25ZM15 15V5V15ZM15 15H25H15Z" stroke="currentColor" stroke-width="4" stroke-linecap="round"/>
  </symbol>

  <!-- small arrow left -->
  <symbol id="small-arrow-left" viewBox="0 0 14 28">
    <path d="M14 4L5.25 14L14 24L12.25 28L0 14L12.25 0L14 4Z" fill="currentColor"/>
  </symbol>

  <!-- small arrow right -->
  <symbol id="small-arrow-right" viewBox="0 0 14 28">
    <path d="M0 4L8.75 14L0 24L1.75 28L14 14L1.75 0L0 4Z" fill="currentColor"/>
  </symbol>
</svg>
